Coordinates
version=1
nRows=4
nColumns=172
inDegrees=yes

Units are S.I. units (second, meters, Newtons, ...)
Angles are in degrees.

endheader
time	pelvis_tilt	pelvis_list	pelvis_rotation	pelvis_tx	pelvis_ty	pelvis_tz	hip_flexion_r	hip_adduction_r	hip_rotation_r	knee_angle_r	knee_angle_r_beta	ankle_angle_r	subtalar_angle_r	mtp_angle_r	hip_flexion_l	hip_adduction_l	hip_rotation_l	knee_angle_l	knee_angle_l_beta	ankle_angle_l	subtalar_angle_l	mtp_angle_l	Abs_FE	Abs_LB	Abs_AR	L5_S1_FE	L5_S1_LB	L5_S1_AR	L4_L5_FE	L4_L5_LB	L4_L5_AR	L3_L4_FE	L3_L4_LB	L3_L4_AR	L2_L3_FE	L2_L3_LB	L2_L3_AR	L1_L2_FE	L1_L2_LB	L1_L2_AR	T12_L1_FE	T12_L1_LB	T12_L1_AR	T11_T12_FE	T11_T12_LB	T11_T12_AR	T10_T11_FE	T10_T11_LB	T10_T11_AR	T9_T10_FE	T9_T10_LB	T9_T10_AR	T8_T9_FE	T8_T9_LB	T8_T9_AR	T7_T8_FE	T7_T8_LB	T7_T8_AR	T6_T7_FE	T6_T7_LB	T6_T7_AR	T5_T6_FE	T5_T6_LB	T5_T6_AR	T4_T5_FE	T4_T5_LB	T4_T5_AR	T3_T4_FE	T3_T4_LB	T3_T4_AR	T2_T3_FE	T2_T3_LB	T2_T3_AR	T1_T2_FE	T1_T2_LB	T1_T2_AR	T1_head_neck_FE	T1_head_neck_LB	T1_head_neck_AR	T12_r12R_X	T12_r12R_Y	T12_r12R_Z	T11_r11R_X	T11_r11R_Y	T11_r11R_Z	T10_r10R_X	T10_r10R_Y	T10_r10R_Z	T9_r9R_X	T9_r9R_Y	T9_r9R_Z	T8_r8R_X	T8_r8R_Y	T8_r8R_Z	T7_r7R_X	T7_r7R_Y	T7_r7R_Z	T6_r6R_X	T6_r6R_Y	T6_r6R_Z	T5_r5R_X	T5_r5R_Y	T5_r5R_Z	T4_r4R_X	T4_r4R_Y	T4_r4R_Z	T3_r3R_X	T3_r3R_Y	T3_r3R_Z	T2_r2R_X	T2_r2R_Y	T2_r2R_Z	T1_r1R_X	T1_r1R_Y	T1_r1R_Z	T12_r12L_X	T12_r12L_Y	T12_r12L_Z	T11_r11L_X	T11_r11L_Y	T11_r11L_Z	T10_r10L_X	T10_r10L_Y	T10_r10L_Z	T9_r9L_X	T9_r9L_Y	T9_r9L_Z	T8_r8L_X	T8_r8L_Y	T8_r8L_Z	T7_r7L_X	T7_r7L_Y	T7_r7L_Z	T6_r6L_X	T6_r6L_Y	T6_r6L_Z	T5_r5L_X	T5_r5L_Y	T5_r5L_Z	T4_r4L_X	T4_r4L_Y	T4_r4L_Z	T3_r3L_X	T3_r3L_Y	T3_r3L_Z	T2_r2L_X	T2_r2L_Y	T2_r2L_Z	T1_r1L_X	T1_r1L_Y	T1_r1L_Z	SternumRotZ	SternumRotX	SternumRotY	SternumX	SternumY	SternumZ	shoulder_elv_r	shoulder_rot_r	elv_angle_r	elbow_flex_r	pro_sup_r	wrist_flex_r	wrist_dev_r	shoulder_elv_l	shoulder_rot_l	elv_angle_l	elbow_flex_l	pro_sup_l	wrist_flex_l	wrist_dev_l
      0.01000000	    -25.02108166	     -1.67836846	     -0.88979932	      0.44261769	      1.17744198	     -0.18814439	     52.75760962	      5.51973790	     10.88518010	     52.96757868	      0.92445864	     -9.71086092	    -22.12955334	      0.00000000	     45.25801733	     -5.51076008	      6.62369376	     72.51731654	      1.26566594	    -17.15477079	    -14.20394606	      0.00000000	      0.00000000	      0.00000000	      0.00000000	    -22.13558937	      1.53163793	      6.55420138	    -17.00283089	     -0.49692124	      1.16194297	    -12.88418721	     -0.95992586	     -1.38989595	     -9.32191363	     -0.72458304	     -2.17305195	     -6.55690891	     -0.51941631	     -2.18302448	     -1.41800466	     -0.05861963	     -1.60935860	      1.85226018	      0.19408154	     -0.94494716	      3.64969078	      0.21877602	     -0.44274792	      4.63842743	      0.26067025	     -0.09979108	      5.86695379	      0.18820340	      0.15760001	      6.96730287	      0.13264909	      0.32144368	      7.22894560	      0.33118296	      0.26798978	      6.18124453	      1.01199682	     -0.07888623	      2.85604361	      2.75397941	     -0.64913922	     -3.74938480	      5.81057136	     -1.14629816	    -13.52482465	      9.92493810	     -0.97189243	    -27.50709894	     14.53426290	     -1.03082429	      0.00000000	      0.00000000	      0.00000000	      0.00000000	      0.00000000	      0.00000000	      0.00000000	      0.00000000	      0.00000000	      0.00000000	      0.00000000	      0.00000000	      0.00000000	      0.00000000	      0.00000000	      0.00000000	      0.00000000	      0.00000000	      0.00000000	      0.00000000	      0.00000000	      0.00000000	      0.00000000	      0.00000000	      0.00000000	      0.00000000	      0.00000000	      0.00000000	      0.00000000	      0.00000000	      0.00000000	      0.00000000	      0.00000000	      0.00000000	      0.00000000	      0.00000000	     52.69019158	      0.00000000	      0.00000000	      0.00000000	      0.00000000	      0.00000000	      0.00000000	      0.00000000	      0.00000000	      0.00000000	      0.00000000	      0.00000000	      0.00000000	      0.00000000	      0.00000000	      0.00000000	      0.00000000	      0.00000000	      0.00000000	      0.00000000	      0.00000000	      0.00000000	      0.00000000	      0.00000000	      0.00000000	      0.00000000	      0.00000000	      0.00000000	      0.00000000	      0.00000000	      0.00000000	      0.00000000	      0.00000000	      0.00000000	      0.00000000	      0.00000000	      0.00000000	      0.00000000	      0.00000000	    -16.70889144	      5.81486540	      3.67150827	     -0.04835107	      0.05227108	     -0.02079190	     15.94310828	     -3.43597308	     53.91844126	     58.35355250	     44.83827186	      0.00000000	      0.00000000	    -34.03745000	     -6.13661006	     66.43334703	     43.32422613	     45.51937887	      0.00000000	      0.00000000
      0.02000000	    -24.98119429	     -1.37207987	     -0.34392673	      0.44312893	      1.17400786	     -0.18752086	     51.09358776	      4.84418452	     11.02236723	     50.42613993	      0.88010217	    -10.53526198	    -22.31733679	      0.00000000	     47.20774154	     -5.06168040	      6.86295396	     75.80714743	      1.32308432	    -17.39098833	    -14.42387562	      0.00000000	      0.00000000	      0.00000000	      0.00000000	    -22.04255047	      1.50090804	      6.54085032	    -16.92809438	     -0.53430294	      1.14586023	    -12.82458724	     -0.99437820	     -1.40978379	     -9.27602495	     -0.75246662	     -2.19649223	     -6.52263462	     -0.54149219	     -2.20841334	     -1.39617757	     -0.07413756	     -1.63673850	      1.86358512	      0.18345384	     -0.97332364	      3.65259758	      0.21159172	     -0.47159576	      4.63342484	      0.25555140	     -0.12863471	      5.85466523	      0.18458780	      0.12896199	      6.94732489	      0.13047095	      0.29318590	      7.20028547	      0.33054448	      0.24015384	      6.14342111	      1.01340234	     -0.10665187	      2.80892808	      2.75853814	     -0.67807190	     -3.80327764	      5.81888428	     -1.17881059	    -13.58046545	      9.93931822	     -1.00996540	    -27.55574574	     14.55973491	     -1.07119336	      0.00000000	      0.00000000	      0.00000000	      0.00000000	      0.00000000	      0.00000000	      0.00000000	      0.00000000	      0.00000000	      0.00000000	      0.00000000	      0.00000000	      0.00000000	      0.00000000	      0.00000000	      0.00000000	      0.00000000	      0.00000000	      0.00000000	      0.00000000	      0.00000000	      0.00000000	      0.00000000	      0.00000000	      0.00000000	      0.00000000	      0.00000000	      0.00000000	      0.00000000	      0.00000000	      0.00000000	      0.00000000	      0.00000000	      0.00000000	      0.00000000	      0.00000000	     52.59227855	      0.00000000	      0.00000000	      0.00000000	      0.00000000	      0.00000000	      0.00000000	      0.00000000	      0.00000000	      0.00000000	      0.00000000	      0.00000000	      0.00000000	      0.00000000	      0.00000000	      0.00000000	      0.00000000	      0.00000000	      0.00000000	      0.00000000	      0.00000000	      0.00000000	      0.00000000	      0.00000000	      0.00000000	      0.00000000	      0.00000000	      0.00000000	      0.00000000	      0.00000000	      0.00000000	      0.00000000	      0.00000000	      0.00000000	      0.00000000	      0.00000000	      0.00000000	      0.00000000	      0.00000000	    -16.84825829	      5.84051494	      3.66089175	     -0.04880176	      0.05218036	     -0.02090742	     15.95536216	     -3.53154907	     53.87759839	     58.62214379	     44.88864682	      0.00000000	      0.00000000	    -34.27351370	     -6.03270841	     66.54436370	     43.74350035	     45.68077828	      0.00000000	      0.00000000
      0.03000000	    -24.91786721	     -1.00861477	      0.04896903	      0.44356732	      1.17020721	     -0.18660610	     49.45165006	      4.23920712	     11.21630139	     48.01666655	      0.83804893	    -11.46699719	    -22.32587749	      0.00000000	     49.09352093	     -4.70599822	      7.00594842	     78.99426364	      1.37870999	    -17.49021294	    -14.29142081	      0.00000000	      0.00000000	      0.00000000	      0.00000000	    -21.98306243	      1.41901041	      6.53463131	    -16.87907256	     -0.60860704	      1.13708076	    -12.77670003	     -1.05764833	     -1.42326665	     -9.22817671	     -0.80372656	     -2.21508108	     -6.47763106	     -0.58256115	     -2.22973712	     -1.35590794	     -0.10478761	     -1.66137354	      1.89452279	      0.16136295	     -0.99962192	      3.67270562	      0.19616726	     -0.49871346	      4.64109563	      0.24542746	     -0.15577924	      5.85179576	      0.17894111	      0.10199556	      6.93454826	      0.12933128	      0.26655434	      7.17767144	      0.33433767	      0.21387828	      6.11197981	      1.02301362	     -0.13274837	      2.76859285	      2.77643983	     -0.70424519	     -3.85431407	      5.84826986	     -1.20541112	    -13.64642419	      9.98520249	     -1.03464307	    -27.64462288	     14.62422515	     -1.08665278	      0.00000000	      0.00000000	      0.00000000	      0.00000000	      0.00000000	      0.00000000	      0.00000000	      0.00000000	      0.00000000	      0.00000000	      0.00000000	      0.00000000	      0.00000000	      0.00000000	      0.00000000	      0.00000000	      0.00000000	      0.00000000	      0.00000000	      0.00000000	      0.00000000	      0.00000000	      0.00000000	      0.00000000	      0.00000000	      0.00000000	      0.00000000	      0.00000000	      0.00000000	      0.00000000	      0.00000000	      0.00000000	      0.00000000	      0.00000000	      0.00000000	      0.00000000	     52.56611812	      0.00000000	      0.00000000	      0.00000000	      0.00000000	      0.00000000	      0.00000000	      0.00000000	      0.00000000	      0.00000000	      0.00000000	      0.00000000	      0.00000000	      0.00000000	      0.00000000	      0.00000000	      0.00000000	      0.00000000	      0.00000000	      0.00000000	      0.00000000	      0.00000000	      0.00000000	      0.00000000	      0.00000000	      0.00000000	      0.00000000	      0.00000000	      0.00000000	      0.00000000	      0.00000000	      0.00000000	      0.00000000	      0.00000000	      0.00000000	      0.00000000	      0.00000000	      0.00000000	      0.00000000	    -16.84738800	      5.89399799	      3.66547554	     -0.04912711	      0.05254567	     -0.02111726	     15.87971598	     -3.65151493	     53.54728219	     59.01116114	     44.96217697	      0.00000000	      0.00000000	    -34.11054745	     -6.07935253	     66.41171858	     44.16653477	     45.79945602	      0.00000000	      0.00000000
      0.04000000	    -24.79807517	     -0.23064532	      0.32976240	      0.44394298	      1.16611009	     -0.18573602	     47.83087462	      3.35984224	     11.65222995	     45.84160211	      0.80008689	    -11.72093766	    -22.31611341	      0.00000000	     50.76532726	     -4.09148999	      6.72282555	     81.98016533	      1.43082381	    -17.43861452	    -14.23016485	      0.00000000	      0.00000000	      0.00000000	      0.00000000	    -21.91426435	      1.23938727	      6.51176449	    -16.83309282	     -0.76979618	      1.11650685	    -12.73452111	     -1.19689394	     -1.44694286	     -9.18527555	     -0.92033370	     -2.24437683	     -6.43668208	     -0.67978069	     -2.26070213	     -1.31938497	     -0.18163303	     -1.69734278	      1.92050051	      0.10227151	     -1.03799825	      3.68589260	      0.15162304	     -0.53826753	      4.63932994	      0.21351876	     -0.19505536	      5.83733130	      0.15784196	      0.06301839	      6.90817060	      0.11898350	      0.22782178	      7.13954150	      0.33552232	      0.17514670	      6.06346467	      1.03680886	     -0.17199629	      2.70976290	      2.80629455	     -0.74420332	     -3.92543949	      5.89811109	     -1.24544649	    -13.73469178	     10.06091747	     -1.06842778	    -27.75961226	     14.72519695	     -1.09954305	      0.00000000	      0.00000000	      0.00000000	      0.00000000	      0.00000000	      0.00000000	      0.00000000	      0.00000000	      0.00000000	      0.00000000	      0.00000000	      0.00000000	      0.00000000	      0.00000000	      0.00000000	      0.00000000	      0.00000000	      0.00000000	      0.00000000	      0.00000000	      0.00000000	      0.00000000	      0.00000000	      0.00000000	      0.00000000	      0.00000000	      0.00000000	      0.00000000	      0.00000000	      0.00000000	      0.00000000	      0.00000000	      0.00000000	      0.00000000	      0.00000000	      0.00000000	     52.50926738	      0.00000000	      0.00000000	      0.00000000	      0.00000000	      0.00000000	      0.00000000	      0.00000000	      0.00000000	      0.00000000	      0.00000000	      0.00000000	      0.00000000	      0.00000000	      0.00000000	      0.00000000	      0.00000000	      0.00000000	      0.00000000	      0.00000000	      0.00000000	      0.00000000	      0.00000000	      0.00000000	      0.00000000	      0.00000000	      0.00000000	      0.00000000	      0.00000000	      0.00000000	      0.00000000	      0.00000000	      0.00000000	      0.00000000	      0.00000000	      0.00000000	      0.00000000	      0.00000000	      0.00000000	    -16.84667607	      5.98577378	      3.67405209	     -0.04943459	      0.05308346	     -0.02102708	     15.82004061	     -3.72064051	     53.39344165	     59.25724342	     45.00390345	      0.00000000	      0.00000000	    -34.08536018	     -6.01236328	     66.35118925	     44.57210391	     45.87951446	      0.00000000	      0.00000000
